<svg width="504" height="504" viewBox="0 0 504 504" fill="none" xmlns="http://www.w3.org/2000/svg">
<g clip-path="url(#clip0_809_9298)">
<path d="M251.79 503.58C390.85 503.58 503.58 390.85 503.58 251.79C503.58 112.73 390.85 0 251.79 0C112.73 0 0 112.73 0 251.79C0 390.85 112.73 503.58 251.79 503.58Z" fill="#FFB5AA"/>
<path d="M384.41 367.96H119.18C115.893 367.955 112.742 366.647 110.418 364.322C108.093 361.998 106.785 358.847 106.78 355.56V177.2C106.788 172.145 108.8 167.299 112.374 163.724C115.949 160.15 120.795 158.138 125.85 158.13H377.74C382.796 158.135 387.644 160.146 391.219 163.721C394.794 167.297 396.805 172.144 396.81 177.2V355.56C396.807 358.848 395.5 362 393.175 364.325C390.85 366.65 387.698 367.957 384.41 367.96V367.96ZM127.69 347.06H375.91V179.06H127.69V347.06Z" fill="#596E77"/>
<path d="M220.85 162.31H199.95V129.03C199.955 125.13 201.507 121.392 204.264 118.634C207.022 115.877 210.76 114.325 214.66 114.32H288.93C297.18 114.32 303.64 120.57 303.64 128.56V159.05H282.74V135.22H220.85V162.31Z" fill="#596E77"/>
<path d="M315.24 286.86C315.296 290.66 314.715 294.442 313.52 298.05C312.466 301.185 310.931 304.137 308.97 306.8C307.129 309.299 304.893 311.481 302.35 313.26C299.897 314.996 297.261 316.458 294.49 317.62C289.369 319.762 283.88 320.886 278.33 320.93H189.74V299.93H278.33C282.743 299.93 286.17 298.747 288.61 296.38C289.852 295.135 290.819 293.644 291.451 292.002C292.083 290.361 292.365 288.606 292.28 286.85C292.293 285.029 291.954 283.222 291.28 281.53C290.656 279.952 289.709 278.521 288.5 277.33C287.239 276.11 285.732 275.172 284.08 274.58C282.228 273.906 280.271 273.568 278.3 273.58H225.51C221.446 273.528 217.409 272.919 213.51 271.77C209.188 270.559 205.122 268.574 201.51 265.91C197.719 263.092 194.583 259.486 192.32 255.34C189.88 250.98 188.66 245.647 188.66 239.34C188.66 233.033 189.88 227.72 192.32 223.4C194.599 219.262 197.732 215.656 201.51 212.82C205.118 210.143 209.185 208.147 213.51 206.93C217.408 205.778 221.446 205.166 225.51 205.11H303.67V226.11H225.51C221.15 226.11 217.75 227.323 215.31 229.75C214.073 231.013 213.108 232.517 212.477 234.168C211.846 235.82 211.561 237.584 211.64 239.35C211.64 243.39 212.863 246.58 215.31 248.92C217.757 251.26 221.157 252.43 225.51 252.43H278.51C281.152 252.509 283.782 252.82 286.37 253.36C289.205 253.95 291.973 254.827 294.63 255.98C297.395 257.183 300.017 258.689 302.45 260.47C304.947 262.302 307.164 264.488 309.03 266.96C311.001 269.606 312.537 272.55 313.58 275.68C314.74 279.291 315.301 283.068 315.24 286.86V286.86Z" fill="#596E77"/>
<path d="M282.69 212.14H303.69V166.04H282.69V212.14Z" fill="#596E77"/>
<path d="M189.73 358.34H210.73V312.24H189.73V358.34Z" fill="#596E77"/>
<path d="M251.97 465.56C370.032 465.56 465.74 369.852 465.74 251.79C465.74 133.728 370.032 38.02 251.97 38.02C133.908 38.02 38.2 133.728 38.2 251.79C38.2 369.852 133.908 465.56 251.97 465.56Z" stroke="#596E77" stroke-width="25" stroke-miterlimit="10"/>
</g>
<defs>
<clipPath id="clip0_809_9298">
<rect width="503.59" height="503.59" fill="white"/>
</clipPath>
</defs>
</svg>
