<svg width="372" height="282" viewBox="0 0 372 282" fill="none" xmlns="http://www.w3.org/2000/svg">
<path d="M329.949 131.632C329.152 131.284 328.511 130.655 328.147 129.864C327.784 129.073 327.723 128.176 327.976 127.343C328.017 127.215 328.043 127.083 328.053 126.949C328.076 126.568 327.976 126.188 327.768 125.868C327.559 125.548 327.253 125.304 326.896 125.171C326.538 125.039 326.147 125.026 325.781 125.134C325.415 125.241 325.093 125.464 324.863 125.77C324.785 125.878 324.719 125.995 324.667 126.119C324.32 126.918 323.692 127.56 322.903 127.925C322.114 128.29 321.219 128.351 320.388 128.097C320.261 128.056 320.129 128.03 319.995 128.02C319.615 127.996 319.237 128.097 318.917 128.306C318.598 128.515 318.354 128.821 318.222 129.18C318.09 129.539 318.077 129.931 318.184 130.297C318.292 130.664 318.514 130.987 318.819 131.217C318.927 131.296 319.044 131.362 319.167 131.414C319.964 131.762 320.605 132.391 320.969 133.182C321.333 133.973 321.394 134.87 321.14 135.703C321.099 135.831 321.073 135.963 321.063 136.097C321.04 136.479 321.14 136.858 321.349 137.178C321.557 137.498 321.863 137.742 322.221 137.875C322.579 138.007 322.97 138.02 323.336 137.913C323.702 137.805 324.023 137.582 324.253 137.276C324.332 137.168 324.398 137.051 324.449 136.927C324.796 136.128 325.424 135.486 326.213 135.121C327.002 134.756 327.897 134.695 328.728 134.949C328.856 134.99 328.987 135.016 329.121 135.027C329.502 135.05 329.88 134.95 330.199 134.74C330.519 134.531 330.762 134.225 330.894 133.866C331.026 133.507 331.04 133.116 330.932 132.749C330.825 132.382 330.602 132.059 330.298 131.829C330.189 131.75 330.072 131.684 329.949 131.632Z" fill="#FFB5AA"/>
<path d="M188.863 190.119C188.066 189.771 187.425 189.142 187.061 188.351C186.698 187.56 186.637 186.663 186.89 185.83C186.931 185.702 186.957 185.57 186.967 185.436C186.99 185.054 186.89 184.675 186.682 184.355C186.473 184.035 186.167 183.79 185.81 183.658C185.452 183.526 185.061 183.513 184.695 183.62C184.329 183.728 184.007 183.951 183.778 184.256C183.699 184.365 183.633 184.482 183.581 184.606C183.234 185.404 182.607 186.047 181.817 186.412C181.028 186.777 180.133 186.838 179.302 186.584C179.175 186.542 179.043 186.516 178.91 186.506C178.529 186.483 178.151 186.583 177.831 186.792C177.512 187.001 177.268 187.308 177.136 187.667C177.004 188.026 176.991 188.417 177.098 188.784C177.206 189.151 177.428 189.474 177.733 189.704C177.841 189.783 177.958 189.849 178.082 189.901C178.878 190.248 179.519 190.878 179.883 191.669C180.247 192.46 180.308 193.357 180.054 194.19C180.013 194.318 179.987 194.45 179.977 194.584C179.954 194.965 180.054 195.344 180.263 195.665C180.471 195.985 180.777 196.229 181.135 196.362C181.493 196.494 181.884 196.507 182.25 196.399C182.616 196.292 182.937 196.069 183.167 195.763C183.246 195.655 183.312 195.538 183.363 195.414C183.71 194.615 184.338 193.973 185.127 193.608C185.916 193.243 186.811 193.182 187.642 193.436C187.77 193.477 187.902 193.503 188.035 193.513C188.416 193.537 188.794 193.436 189.113 193.227C189.433 193.018 189.676 192.712 189.808 192.353C189.94 191.994 189.954 191.602 189.846 191.235C189.739 190.869 189.516 190.546 189.212 190.316C189.104 190.237 188.986 190.171 188.863 190.119Z" fill="#FFB5AA"/>
<path d="M86.488 99.6742C85.6914 99.3264 85.0502 98.6972 84.6864 97.9062C84.3227 97.1153 84.2617 96.2179 84.5152 95.3848C84.5562 95.2571 84.5821 95.125 84.5922 94.9912C84.6154 94.6095 84.5153 94.2305 84.3068 93.9103C84.0983 93.5901 83.7924 93.3457 83.4346 93.2133C83.0767 93.081 82.6858 93.0677 82.3198 93.1755C81.9538 93.2833 81.6322 93.5063 81.4026 93.8117C81.3236 93.92 81.2576 94.0373 81.2061 94.1611C80.8592 94.9596 80.2315 95.6024 79.4425 95.9671C78.6535 96.3317 77.7582 96.3928 76.9272 96.1387C76.7998 96.0976 76.668 96.0717 76.5345 96.0615C76.1538 96.0383 75.7757 96.1386 75.4563 96.3477C75.1369 96.5567 74.8931 96.8632 74.7611 97.222C74.6291 97.5808 74.6158 97.9726 74.7233 98.3395C74.8308 98.7064 75.0533 99.0288 75.3579 99.259C75.466 99.3381 75.583 99.4042 75.7065 99.4559C76.5031 99.8037 77.1443 100.433 77.508 101.224C77.8718 102.015 77.9327 102.912 77.6793 103.745C77.6383 103.873 77.6124 104.005 77.6023 104.139C77.5791 104.521 77.6792 104.9 77.8877 105.22C78.0962 105.54 78.402 105.784 78.7599 105.917C79.1178 106.049 79.5086 106.062 79.8746 105.955C80.2406 105.847 80.5623 105.624 80.7919 105.318C80.8709 105.21 80.9368 105.093 80.9884 104.969C81.3353 104.17 81.963 103.528 82.752 103.163C83.541 102.798 84.4362 102.737 85.2672 102.991C85.3947 103.032 85.5265 103.058 85.6599 103.069C86.0407 103.092 86.4188 102.992 86.7382 102.782C87.0576 102.573 87.3014 102.267 87.4334 101.908C87.5655 101.549 87.5787 101.158 87.4712 100.791C87.3637 100.424 87.1411 100.101 86.8365 99.8711C86.7285 99.792 86.6115 99.7259 86.488 99.6742Z" fill="#FFB5AA"/>
<path d="M234.005 43.2134C237.197 43.2134 239.786 40.6188 239.786 37.4183C239.786 34.2177 237.197 31.6231 234.005 31.6231C230.812 31.6231 228.224 34.2177 228.224 37.4183C228.224 40.6188 230.812 43.2134 234.005 43.2134Z" fill="#FFB5AA"/>
<path d="M311.683 98.5896C314.876 98.5896 317.464 95.995 317.464 92.7944C317.464 89.5938 314.876 86.9992 311.683 86.9992C308.491 86.9992 305.902 89.5938 305.902 92.7944C305.902 95.995 308.491 98.5896 311.683 98.5896Z" fill="#01AFEE"/>
<path d="M150.249 11.5904C153.442 11.5904 156.03 8.99577 156.03 5.79518C156.03 2.59459 153.442 0 150.249 0C147.056 0 144.468 2.59459 144.468 5.79518C144.468 8.99577 147.056 11.5904 150.249 11.5904Z" fill="#FFB5AA"/>
<path d="M71.1018 264.097C94.019 264.097 112.597 245.474 112.597 222.5C112.597 199.527 94.019 180.903 71.1018 180.903C48.1845 180.903 29.6064 199.527 29.6064 222.5C29.6064 245.474 48.1845 264.097 71.1018 264.097Z" fill="#596E77"/>
<path d="M64.7986 255.146H52.1924V277.788H64.7986V255.146Z" fill="#596E77"/>
<path d="M90.0114 255.146H77.4053V277.788H90.0114V255.146Z" fill="#596E77"/>
<path d="M62.6975 282C68.4994 282 73.2027 280.232 73.2027 278.051C73.2027 275.87 68.4994 274.102 62.6975 274.102C56.8957 274.102 52.1924 275.87 52.1924 278.051C52.1924 280.232 56.8957 282 62.6975 282Z" fill="#596E77"/>
<path d="M87.9104 281.473C93.7123 281.473 98.4156 279.705 98.4156 277.524C98.4156 275.343 93.7123 273.575 87.9104 273.575C82.1086 273.575 77.4053 275.343 77.4053 277.524C77.4053 279.705 82.1086 281.473 87.9104 281.473Z" fill="#596E77"/>
<path d="M115.817 204.323C124.804 195.308 129.8 185.706 126.976 182.878C124.153 180.05 114.579 185.066 105.593 194.082C96.6063 203.097 91.61 212.698 94.4334 215.527C97.2567 218.355 106.83 213.339 115.817 204.323Z" fill="#596E77"/>
<path d="M37.6552 218.424C40.4785 215.596 35.4822 205.995 26.4957 196.979C17.5092 187.964 7.93539 182.948 5.11207 185.776C2.28875 188.604 7.28504 198.205 16.2716 207.221C25.2581 216.236 34.8319 221.252 37.6552 218.424Z" fill="#596E77"/>
<path d="M69.3558 230.822C77.1882 230.822 83.5377 224.457 83.5377 216.605C83.5377 208.754 77.1882 202.389 69.3558 202.389C61.5233 202.389 55.1738 208.754 55.1738 216.605C55.1738 224.457 61.5233 230.822 69.3558 230.822Z" fill="white"/>
<path d="M69.3562 221.344C71.9671 221.344 74.0836 219.223 74.0836 216.605C74.0836 213.988 71.9671 211.866 69.3562 211.866C66.7454 211.866 64.6289 213.988 64.6289 216.605C64.6289 219.223 66.7454 221.344 69.3562 221.344Z" fill="#596E77"/>
<path d="M80.6136 242.899C81.0517 245.311 80.5158 247.799 79.1239 249.816C77.732 251.832 75.5981 253.212 73.1915 253.651C70.785 254.09 68.3029 253.553 66.2915 252.157C64.28 250.762 62.9038 248.623 62.4657 246.21L62.4625 246.193C61.5551 241.168 65.4305 239.39 70.4427 238.48C75.455 237.571 79.7062 237.874 80.6136 242.899Z" fill="white"/>
<path d="M111.79 266.157C110.856 266.158 109.961 266.531 109.301 267.193C108.64 267.855 108.269 268.753 108.268 269.689V277.065C108.269 278.002 108.64 278.899 109.301 279.561C109.961 280.224 110.856 280.596 111.79 280.597H168.473C169.407 280.596 170.302 280.224 170.963 279.561C171.623 278.899 171.995 278.002 171.996 277.066V269.689C171.995 268.753 171.623 267.855 170.963 267.193C170.302 266.531 169.407 266.158 168.473 266.157H111.79Z" fill="#FFB5AA"/>
<path d="M144.387 261.245C144.037 261.042 143.62 260.987 143.228 261.092C142.837 261.197 142.503 261.453 142.301 261.805L140.194 265.463L138.13 261.373C137.947 261.011 137.628 260.736 137.243 260.609C136.858 260.483 136.439 260.515 136.077 260.698C135.716 260.881 135.442 261.201 135.315 261.587C135.189 261.973 135.221 262.393 135.404 262.756L137.01 265.939H136.421V280.816H144.278V265.939H143.448L144.947 263.337C145.149 262.985 145.204 262.567 145.099 262.175C144.994 261.782 144.738 261.448 144.387 261.245Z" fill="#01AFEE"/>
<path d="M70.0331 195.216C62.6602 195.209 55.3306 194.086 48.2918 191.887C47.8027 191.728 47.3761 191.419 47.0729 191.003C46.7696 190.587 46.6054 190.086 46.6035 189.571V172.639C46.6043 171.999 46.8583 171.385 47.3099 170.933C47.7614 170.48 48.3737 170.225 49.0123 170.224H91.4062C92.0448 170.225 92.6571 170.48 93.1086 170.933C93.5602 171.385 93.8142 171.999 93.815 172.639V189.561C93.8152 190.08 93.6487 190.586 93.3401 191.004C93.0314 191.421 92.597 191.728 92.1011 191.878C84.9481 194.069 77.5125 195.194 70.0331 195.216Z" fill="#01AFEE"/>
<path opacity="0.2" d="M93.3339 172.639V175.469L70.3929 183.534C69.9641 183.682 69.4971 183.675 69.0728 183.515L47.0859 175.237V172.639C47.0874 172.127 47.2909 171.637 47.652 171.275C48.013 170.913 48.5023 170.709 49.0129 170.707H91.4069C91.9175 170.709 92.4068 170.913 92.7678 171.275C93.1289 171.637 93.3324 172.127 93.3339 172.639Z" fill="black"/>
<path d="M69.7502 180.261C69.4612 180.261 69.1744 180.21 68.9036 180.108L36.0473 167.74C35.5827 167.566 35.1834 167.251 34.9039 166.84C34.6244 166.429 34.4783 165.941 34.4856 165.444C34.493 164.947 34.6533 164.464 34.9449 164.061C35.2364 163.659 35.6448 163.356 36.1143 163.195L67.0286 152.593C67.5281 152.424 68.069 152.421 68.5699 152.587L103.073 164.116C103.549 164.275 103.964 164.58 104.26 164.987C104.555 165.395 104.716 165.885 104.72 166.388C104.724 166.892 104.57 167.384 104.281 167.796C103.992 168.208 103.582 168.519 103.108 168.686L70.5467 180.126C70.2907 180.216 70.0214 180.261 69.7502 180.261Z" fill="#01AFEE"/>
<path d="M39.86 179.4H38.8965V165.395H68.2832V166.361H39.86V179.4Z" fill="#596E77"/>
<path d="M39.3772 182.298C40.4414 182.298 41.3042 181.433 41.3042 180.366C41.3042 179.299 40.4414 178.434 39.3772 178.434C38.3129 178.434 37.4502 179.299 37.4502 180.366C37.4502 181.433 38.3129 182.298 39.3772 182.298Z" fill="#596E77"/>
<path d="M311.013 264.097C333.93 264.097 352.508 245.474 352.508 222.5C352.508 199.527 333.93 180.903 311.013 180.903C288.096 180.903 269.518 199.527 269.518 222.5C269.518 245.474 288.096 264.097 311.013 264.097Z" fill="#596E77"/>
<path d="M304.71 255.146H292.104V277.788H304.71V255.146Z" fill="#596E77"/>
<path d="M329.923 255.146H317.316V277.788H329.923V255.146Z" fill="#596E77"/>
<path d="M302.609 282C308.411 282 313.114 280.232 313.114 278.051C313.114 275.87 308.411 274.102 302.609 274.102C296.807 274.102 292.104 275.87 292.104 278.051C292.104 280.232 296.807 282 302.609 282Z" fill="#596E77"/>
<path d="M327.822 281.473C333.623 281.473 338.327 279.705 338.327 277.524C338.327 275.343 333.623 273.575 327.822 273.575C322.02 273.575 317.316 275.343 317.316 277.524C317.316 279.705 322.02 281.473 327.822 281.473Z" fill="#596E77"/>
<path d="M355.728 204.323C364.715 195.308 369.711 185.706 366.888 182.878C364.064 180.05 354.49 185.066 345.504 194.082C336.517 203.097 331.521 212.698 334.344 215.527C337.168 218.355 346.742 213.339 355.728 204.323Z" fill="#596E77"/>
<path d="M273.976 242.935C281.227 232.466 284.448 222.13 281.169 219.848C277.891 217.566 269.355 224.202 262.103 234.671C254.852 245.14 251.631 255.476 254.91 257.758C258.188 260.04 266.724 253.404 273.976 242.935Z" fill="#596E77"/>
<path d="M309.267 230.822C317.099 230.822 323.449 224.457 323.449 216.605C323.449 208.754 317.099 202.389 309.267 202.389C301.434 202.389 295.085 208.754 295.085 216.605C295.085 224.457 301.434 230.822 309.267 230.822Z" fill="white"/>
<path d="M314.085 216.515C316.696 216.515 318.812 214.393 318.812 211.776C318.812 209.159 316.696 207.037 314.085 207.037C311.474 207.037 309.357 209.159 309.357 211.776C309.357 214.393 311.474 216.515 314.085 216.515Z" fill="#596E77"/>
<path d="M326.27 242.899C327.662 247.922 322.594 252.736 314.952 253.651C307.309 254.565 299.986 251.234 298.595 246.21L298.59 246.193C297.206 241.168 303.116 239.39 310.76 238.48C318.403 237.571 324.887 237.874 326.27 242.899Z" fill="white"/>
<path d="M296.494 198.019C289.65 200.769 282.432 202.469 275.083 203.06C274.57 203.096 274.06 202.969 273.623 202.697C273.187 202.424 272.848 202.02 272.655 201.543L266.354 185.834C266.116 185.239 266.123 184.575 266.374 183.986C266.624 183.397 267.098 182.932 267.69 182.693L307.023 166.838C307.616 166.6 308.279 166.607 308.866 166.858C309.454 167.109 309.918 167.584 310.157 168.177L316.454 183.878C316.648 184.36 316.682 184.891 316.551 185.394C316.42 185.897 316.131 186.344 315.727 186.669C309.905 191.377 303.425 195.201 296.494 198.019Z" fill="#01AFEE"/>
<path opacity="0.2" d="M309.711 168.358L310.764 170.983L292.48 187.046C292.138 187.343 291.702 187.512 291.248 187.521L267.768 188.064L266.801 185.653C266.612 185.178 266.619 184.647 266.819 184.176C267.019 183.705 267.397 183.333 267.87 183.141L307.204 167.286C307.678 167.096 308.208 167.103 308.678 167.304C309.147 167.504 309.519 167.883 309.711 168.358Z" fill="black"/>
<path d="M290.666 184.249C290.398 184.357 290.113 184.417 289.824 184.424L254.737 185.237C254.241 185.248 253.753 185.106 253.341 184.829C252.929 184.552 252.612 184.154 252.433 183.69C252.255 183.226 252.224 182.718 252.345 182.235C252.465 181.753 252.732 181.319 253.107 180.994L277.844 159.596C278.245 159.252 278.746 159.048 279.272 159.014L315.575 156.808C316.076 156.777 316.575 156.905 317 157.172C317.426 157.44 317.757 157.834 317.948 158.3C318.139 158.766 318.18 159.28 318.065 159.77C317.951 160.26 317.686 160.702 317.308 161.034L291.355 183.826C291.151 184.005 290.918 184.148 290.666 184.249Z" fill="#01AFEE"/>
<path d="M262.613 194.629L261.718 194.989L256.507 181.995L283.772 171.005L284.131 171.901L257.759 182.531L262.613 194.629Z" fill="#596E77"/>
<path d="M262.525 197.637C263.589 197.637 264.452 196.772 264.452 195.705C264.452 194.638 263.589 193.773 262.525 193.773C261.46 193.773 260.598 194.638 260.598 195.705C260.598 196.772 261.46 197.637 262.525 197.637Z" fill="#596E77"/>
<path d="M85.9074 60.1695C79.6525 56.2566 74.0222 51.4202 69.2066 45.8235C68.8748 45.4301 68.6757 44.9417 68.6376 44.4279C68.5995 43.9142 68.7243 43.4016 68.9944 42.9633L77.9217 28.5897C78.2598 28.0467 78.7991 27.6603 79.4211 27.5152C80.0431 27.3702 80.6971 27.4784 81.2396 27.8162L117.228 50.2782C117.77 50.6172 118.155 51.1578 118.3 51.7813C118.445 52.4049 118.337 53.0604 118 53.6043L109.078 67.9694C108.804 68.4106 108.396 68.7517 107.914 68.9425C107.432 69.1333 106.901 69.1635 106.401 69.0287C99.1734 67.0986 92.2684 64.1136 85.9074 60.1695Z" fill="#01AFEE"/>
<path opacity="0.2" d="M117.591 53.349L116.099 55.7514L92.3719 50.4427C91.9298 50.3414 91.5369 50.0882 91.2615 49.7269L76.9609 31.0505L78.3309 28.845C78.602 28.4112 79.0334 28.1027 79.5307 27.9867C80.028 27.8708 80.5509 27.9568 80.9852 28.2261L116.974 50.6882C117.406 50.96 117.714 51.3924 117.83 51.8909C117.946 52.3895 117.86 52.9137 117.591 53.349Z" fill="black"/>
<path d="M93.5519 47.3244C93.3064 47.1714 93.0904 46.9753 92.9141 46.7457L71.5429 18.8381C71.2408 18.4435 71.0676 17.965 71.047 17.468C71.0264 16.971 71.1595 16.4797 71.4279 16.0613C71.6964 15.643 72.0873 15.3179 72.547 15.1307C73.0067 14.9434 73.5129 14.903 73.9964 15.015L105.83 22.3947C106.343 22.5154 106.803 22.8 107.141 23.2057L130.352 51.2743C130.673 51.662 130.864 52.1405 130.9 52.6428C130.936 53.1451 130.814 53.6461 130.552 54.0757C130.29 54.5052 129.9 54.8418 129.438 55.0384C128.975 55.2349 128.463 55.2816 127.973 55.1719L94.2994 47.6315C94.0348 47.5721 93.782 47.4682 93.5519 47.3244Z" fill="#01AFEE"/>
<path d="M68.6315 30.756L67.8135 30.2451L75.1977 18.3563L100.145 33.927L99.6349 34.746L75.5061 19.6863L68.6315 30.756Z" fill="#596E77"/>
<path d="M67.7131 33.2521C68.7774 33.2521 69.6401 32.3872 69.6401 31.3204C69.6401 30.2535 68.7774 29.3886 67.7131 29.3886C66.6489 29.3886 65.7861 30.2535 65.7861 31.3204C65.7861 32.3872 66.6489 33.2521 67.7131 33.2521Z" fill="#596E77"/>
<path d="M186.294 152.72C209.211 152.72 227.789 134.096 227.789 111.123C227.789 88.1495 209.211 69.5259 186.294 69.5259C163.377 69.5259 144.799 88.1495 144.799 111.123C144.799 134.096 163.377 152.72 186.294 152.72Z" fill="#596E77"/>
<path d="M215.061 132.692L204.305 139.282L216.083 158.601L226.839 152.011L215.061 132.692Z" fill="#596E77"/>
<path d="M193.548 145.871L182.792 152.461L194.57 171.781L205.326 165.191L193.548 145.871Z" fill="#596E77"/>
<path d="M220.066 161.097C225.017 158.064 228.11 154.096 226.976 152.235C225.841 150.374 220.908 151.324 215.958 154.357C211.007 157.39 207.914 161.358 209.048 163.219C210.183 165.08 215.116 164.13 220.066 161.097Z" fill="#596E77"/>
<path d="M198.279 173.827C203.23 170.794 206.323 166.827 205.189 164.966C204.054 163.105 199.121 164.055 194.171 167.088C189.22 170.121 186.127 174.088 187.261 175.949C188.396 177.81 193.329 176.86 198.279 173.827Z" fill="#596E77"/>
<path d="M162.963 104.149C165.786 101.321 160.79 91.7202 151.803 82.7047C142.817 73.6892 133.243 68.6732 130.42 71.5013C127.596 74.3294 132.593 83.9305 141.579 92.946C150.566 101.962 160.139 106.978 162.963 104.149Z" fill="#596E77"/>
<path d="M242.398 146.381C245.676 144.099 242.455 133.762 235.204 123.294C227.953 112.825 219.417 106.188 216.138 108.47C212.86 110.752 216.081 121.089 223.332 131.558C230.583 142.026 239.119 148.663 242.398 146.381Z" fill="#596E77"/>
<path d="M173.587 113.65C181.42 113.65 187.769 107.285 187.769 99.433C187.769 91.5813 181.42 85.2162 173.587 85.2162C165.755 85.2162 159.405 91.5813 159.405 99.433C159.405 107.285 165.755 113.65 173.587 113.65Z" fill="white"/>
<path d="M168.77 99.3426C171.381 99.3426 173.498 97.2209 173.498 94.6037C173.498 91.9864 171.381 89.8647 168.77 89.8647C166.159 89.8647 164.043 91.9864 164.043 94.6037C164.043 97.2209 166.159 99.3426 168.77 99.3426Z" fill="#596E77"/>
<path d="M155.325 123.148C152.635 127.565 156.218 133.54 163.328 136.494C170.437 139.449 178.38 138.263 181.069 133.846L181.079 133.83C183.761 129.41 178.551 126.104 171.44 123.154C164.328 120.204 158.007 118.728 155.325 123.148Z" fill="white"/>
<path d="M172.371 58.8927C176.076 43.9344 192.432 35.1317 208.902 39.2314C225.372 43.3311 235.72 58.7808 232.015 73.7391C228.31 88.6974 216.017 88.7457 199.547 84.646C183.077 80.5462 168.666 73.851 172.371 58.8927Z" fill="#FFB5AA"/>
</svg>
