<svg width="481" height="324" viewBox="0 0 481 324" fill="none" xmlns="http://www.w3.org/2000/svg">
<path d="M463.686 314.657H466.041L461.33 0H458.974L459.068 6.27745H406.272L406.366 0H404.01L399.299 314.657H401.654L401.96 294.255H463.38L463.686 314.657ZM460.29 87.8841H405.05L405.626 49.4348H459.714L460.29 87.8841ZM460.325 90.2382L460.901 128.687H404.439L405.015 90.2382H460.325ZM460.936 131.042L461.512 169.491H403.828L404.404 131.042H460.936ZM461.547 171.845L462.123 210.294H403.217L403.793 171.845H461.547ZM462.158 212.648L462.734 251.098H402.606L403.182 212.648H462.158ZM459.104 8.6315L459.679 47.0808H405.661L406.236 8.6315H459.104ZM401.995 291.901L402.571 253.452H462.769L463.345 291.901H401.995Z" fill="#596E77"/>
<path d="M421.001 108.378C442.215 108.378 459.412 91.1923 459.412 69.9927C459.412 48.793 442.215 31.6073 421.001 31.6073C399.787 31.6073 382.59 48.793 382.59 69.9927C382.59 91.1923 399.787 108.378 421.001 108.378Z" fill="#596E77"/>
<path d="M443.595 96.5203L432.112 98.5975L435.837 119.157L447.319 117.079L443.595 96.5203Z" fill="#596E77"/>
<path d="M420.63 100.675L409.147 102.752L412.872 123.311L424.354 121.234L420.63 100.675Z" fill="#596E77"/>
<path d="M418.967 127.638C423.065 124.169 425.333 120.112 424.031 118.576C422.729 117.041 418.352 118.607 414.254 122.076C410.155 125.544 407.888 129.601 409.19 131.137C410.491 132.673 414.869 131.106 418.967 127.638Z" fill="#596E77"/>
<path d="M441.453 123.57C445.552 120.101 447.819 116.044 446.517 114.508C445.216 112.973 440.838 114.539 436.74 118.008C432.642 121.476 430.374 125.533 431.676 127.069C432.978 128.605 437.355 127.038 441.453 123.57Z" fill="#596E77"/>
<path d="M418.312 73.7225C425.563 73.7225 431.44 67.8489 431.44 60.6035C431.44 53.358 425.563 47.4844 418.312 47.4844C411.062 47.4844 405.185 53.358 405.185 60.6035C405.185 67.8489 411.062 73.7225 418.312 73.7225Z" fill="white"/>
<path d="M412.916 60.274C415.333 60.274 417.292 58.3162 417.292 55.901C417.292 53.4859 415.333 51.528 412.916 51.528C410.499 51.528 408.54 53.4859 408.54 55.901C408.54 58.3162 410.499 60.274 412.916 60.274Z" fill="#596E77"/>
<path d="M451.302 28.2336C451.879 14.0228 439.623 1.98612 423.927 1.34899C408.231 0.711863 395.039 11.7155 394.461 25.9263C393.884 40.1371 404.794 43.3659 420.49 44.0031C436.186 44.6403 450.724 42.4444 451.302 28.2336Z" fill="#FFB5AA"/>
<path d="M404.254 67.2876C404.998 64.0441 397.22 59.4949 386.881 57.1267C376.542 54.7585 367.558 55.468 366.814 58.7115C366.07 61.955 373.848 66.5042 384.187 68.8724C394.526 71.2406 403.51 70.5311 404.254 67.2876Z" fill="#596E77"/>
<path d="M479.653 79.8181C480.397 76.5746 472.619 72.0254 462.28 69.6572C451.942 67.289 442.957 67.9985 442.213 71.242C441.469 74.4855 449.247 79.0347 459.586 81.4029C469.925 83.7712 478.909 83.0616 479.653 79.8181Z" fill="#596E77"/>
<path d="M431.551 85.1199C431.757 86.2503 431.739 87.4104 431.497 88.5338C431.256 89.6573 430.794 90.722 430.14 91.6673C429.486 92.6126 428.653 93.4198 427.686 94.0428C426.72 94.6658 425.64 95.0924 424.509 95.2982C423.378 95.504 422.217 95.485 421.093 95.2423C419.969 94.9995 418.904 94.5378 417.958 93.8835C417.013 93.2292 416.206 92.3951 415.583 91.4289C414.961 90.4628 414.535 89.3835 414.33 88.2527L414.327 88.2358C413.466 83.4828 417.143 81.8008 421.899 80.9404C426.656 80.08 430.69 80.3669 431.551 85.1199Z" fill="white"/>
<path d="M290.905 200.364C294.787 190.214 295.349 180.998 292.161 179.781C288.972 178.563 283.24 185.803 279.358 195.953C275.476 206.103 274.914 215.319 278.102 216.536C281.291 217.754 287.023 210.514 290.905 200.364Z" fill="#596E77"/>
<path d="M287.604 234.176C291.087 212.725 276.51 192.513 255.044 189.032C233.578 185.551 213.353 200.118 209.87 221.57C206.386 243.021 220.964 263.233 242.43 266.714C263.895 270.195 284.12 255.627 287.604 234.176Z" fill="#596E77"/>
<path d="M242.756 258.755H230.794V280.172H242.756V258.755Z" fill="#596E77"/>
<path d="M266.68 258.755H254.718V280.172H266.68V258.755Z" fill="#596E77"/>
<path d="M240.762 284.157C246.268 284.157 250.731 282.485 250.731 280.422C250.731 278.358 246.268 276.686 240.762 276.686C235.257 276.686 230.794 278.358 230.794 280.422C230.794 282.485 235.257 284.157 240.762 284.157Z" fill="#596E77"/>
<path d="M264.686 283.659C270.192 283.659 274.655 281.987 274.655 279.923C274.655 277.86 270.192 276.188 264.686 276.188C259.181 276.188 254.718 277.86 254.718 279.923C254.718 281.987 259.181 283.659 264.686 283.659Z" fill="#596E77"/>
<path d="M210.541 191.279C207.362 177.05 217.525 162.672 233.241 159.165C248.958 155.658 264.276 164.35 267.455 178.579C270.635 192.808 260.219 198.056 244.502 201.563C228.786 205.07 213.72 205.508 210.541 191.279Z" fill="#FFB5AA"/>
<path d="M222.176 218.046C223.638 214.964 216.86 208.69 207.036 204.034C197.211 199.378 188.062 198.101 186.599 201.183C185.136 204.266 191.914 210.539 201.739 215.195C211.563 219.852 220.713 221.128 222.176 218.046Z" fill="#596E77"/>
<path d="M78.2446 307.065C99.9911 307.065 117.62 289.448 117.62 267.716C117.62 245.984 99.9911 228.366 78.2446 228.366C56.4981 228.366 38.8691 245.984 38.8691 267.716C38.8691 289.448 56.4981 307.065 78.2446 307.065Z" fill="#596E77"/>
<path d="M72.2629 298.597H60.3008V320.015H72.2629V298.597Z" fill="#596E77"/>
<path d="M96.1878 298.597H84.2256V320.015H96.1878V298.597Z" fill="#596E77"/>
<path d="M70.2693 324C75.7747 324 80.2378 322.327 80.2378 320.264C80.2378 318.201 75.7747 316.529 70.2693 316.529C64.7638 316.529 60.3008 318.201 60.3008 320.264C60.3008 322.327 64.7638 324 70.2693 324Z" fill="#596E77"/>
<path d="M94.1941 323.502C99.6995 323.502 104.163 321.829 104.163 319.766C104.163 317.703 99.6995 316.031 94.1941 316.031C88.6886 316.031 84.2256 317.703 84.2256 319.766C84.2256 321.829 88.6886 323.502 94.1941 323.502Z" fill="#596E77"/>
<path d="M79.2416 271.202C86.674 271.202 92.6991 265.181 92.6991 257.754C92.6991 250.326 86.674 244.305 79.2416 244.305C71.8093 244.305 65.7842 250.326 65.7842 257.754C65.7842 265.181 71.8093 271.202 79.2416 271.202Z" fill="white"/>
<path d="M79.2407 262.237C81.7182 262.237 83.7265 260.23 83.7265 257.754C83.7265 255.278 81.7182 253.271 79.2407 253.271C76.7633 253.271 74.7549 255.278 74.7549 257.754C74.7549 260.23 76.7633 262.237 79.2407 262.237Z" fill="#596E77"/>
<path d="M40.0489 231.122C36.8695 216.893 47.0328 202.515 62.7491 199.008C78.4655 195.501 93.7836 204.193 96.9629 218.422C100.142 232.651 89.7265 237.899 74.0101 241.406C58.2938 244.913 43.2283 245.351 40.0489 231.122Z" fill="#FFB5AA"/>
<path d="M106.954 127.14C110.837 116.99 111.399 107.774 108.21 106.556C105.022 105.339 99.2901 112.579 95.408 122.729C91.5259 132.879 90.9637 142.094 94.1521 143.312C97.3406 144.53 103.072 137.289 106.954 127.14Z" fill="#596E77"/>
<path d="M103.654 160.952C107.137 139.5 92.5596 119.289 71.0939 115.808C49.6282 112.327 29.403 126.894 25.9196 148.346C22.4362 169.797 37.0137 190.009 58.4794 193.49C79.945 196.971 100.17 182.403 103.654 160.952Z" fill="#596E77"/>
<path d="M58.8059 185.531H46.8438V206.948H58.8059V185.531Z" fill="#596E77"/>
<path d="M82.7297 185.531H70.7676V206.948H82.7297V185.531Z" fill="#596E77"/>
<path d="M56.8122 210.933C62.3177 210.933 66.7807 209.261 66.7807 207.197C66.7807 205.134 62.3177 203.462 56.8122 203.462C51.3068 203.462 46.8438 205.134 46.8438 207.197C46.8438 209.261 51.3068 210.933 56.8122 210.933Z" fill="#596E77"/>
<path d="M80.7361 210.435C86.2415 210.435 90.7046 208.763 90.7046 206.699C90.7046 204.636 86.2415 202.964 80.7361 202.964C75.2306 202.964 70.7676 204.636 70.7676 206.699C70.7676 208.763 75.2306 210.435 80.7361 210.435Z" fill="#596E77"/>
<path d="M65.7836 158.135C73.216 158.135 79.2411 152.114 79.2411 144.687C79.2411 137.26 73.216 131.238 65.7836 131.238C58.3513 131.238 52.3262 137.26 52.3262 144.687C52.3262 152.114 58.3513 158.135 65.7836 158.135Z" fill="white"/>
<path d="M65.7837 149.17C68.2611 149.17 70.2695 147.163 70.2695 144.687C70.2695 142.211 68.2611 140.204 65.7837 140.204C63.3062 140.204 61.2979 142.211 61.2979 144.687C61.2979 147.163 63.3062 149.17 65.7837 149.17Z" fill="#596E77"/>
<path d="M26.5909 118.055C23.4115 103.826 33.5748 89.4477 49.2911 85.9407C65.0075 82.4337 80.3256 91.1258 83.5049 105.355C86.6843 119.584 76.2685 124.832 60.5521 128.339C44.8358 131.846 29.7703 132.284 26.5909 118.055Z" fill="#FFB5AA"/>
<path d="M38.2254 144.822C39.6882 141.74 32.9098 135.466 23.0856 130.81C13.2613 126.154 4.11132 124.877 2.64856 127.959C1.1858 131.042 7.96416 137.315 17.7884 141.971C27.6127 146.628 36.7627 147.904 38.2254 144.822Z" fill="#596E77"/>
<path d="M45.4453 168.844C45.4453 172.696 55.3682 180.3 66.3791 180.3C77.39 180.3 87.7139 169.458 87.7139 165.607C87.7139 161.756 77.3899 166.354 66.3791 166.354C55.3683 166.354 45.4453 164.993 45.4453 168.844Z" fill="white"/>
<path d="M103.5 4.40137C102.772 4.40216 102.075 4.69121 101.561 5.20508C101.047 5.71895 100.758 6.41567 100.757 7.14239V120.437C100.758 121.164 101.047 121.861 101.561 122.375C102.075 122.888 102.772 123.177 103.5 123.178H365.897C366.624 123.177 367.322 122.888 367.836 122.375C368.35 121.861 368.639 121.164 368.64 120.437V7.14239C368.639 6.41567 368.35 5.71895 367.836 5.20508C367.322 4.69121 366.624 4.40216 365.897 4.40137H103.5Z" fill="#01AFEE"/>
<path d="M174.35 90.3968C189.055 90.3968 200.975 78.4845 200.975 63.7898C200.975 49.0952 189.055 37.1828 174.35 37.1828C159.646 37.1828 147.726 49.0952 147.726 63.7898C147.726 78.4845 159.646 90.3968 174.35 90.3968Z" fill="white"/>
<path d="M234.442 60.2498C233.625 60.2632 232.847 60.5968 232.274 61.1788C231.701 61.7607 231.38 62.5443 231.38 63.3607C231.38 64.177 231.701 64.9606 232.274 65.5425C232.847 66.1245 233.625 66.4581 234.442 66.4715H318.506C318.915 66.4786 319.321 66.405 319.702 66.255C320.082 66.105 320.43 65.8816 320.724 65.5974C321.018 65.3132 321.253 64.974 321.416 64.5989C321.579 64.2239 321.666 63.8205 321.672 63.4118C321.679 63.003 321.605 62.597 321.455 62.2168C321.304 61.8367 321.081 61.4898 320.796 61.1962C320.511 60.9025 320.172 60.6678 319.796 60.5054C319.421 60.343 319.017 60.2561 318.608 60.2498C318.574 60.2492 318.54 60.2492 318.506 60.2498H234.442Z" fill="white"/>
<path d="M234.442 42.2258C233.625 42.2392 232.847 42.5729 232.274 43.1548C231.701 43.7368 231.38 44.5204 231.38 45.3367C231.38 46.153 231.701 46.9366 232.274 47.5186C232.847 48.1005 233.625 48.4342 234.442 48.4476H276.422C276.831 48.4546 277.237 48.3811 277.618 48.2311C277.998 48.0811 278.345 47.8576 278.639 47.5735C278.934 47.2893 279.169 46.95 279.332 46.575C279.494 46.2 279.582 45.7966 279.588 45.3878C279.595 44.9791 279.521 44.573 279.371 44.1928C279.22 43.8127 278.996 43.4659 278.712 43.1722C278.427 42.8786 278.087 42.6438 277.712 42.4814C277.337 42.319 276.933 42.2322 276.524 42.2258C276.49 42.2252 276.456 42.2252 276.422 42.2258H234.442Z" fill="white"/>
<path d="M234.442 79.1324C233.625 79.1458 232.847 79.4794 232.274 80.0614C231.701 80.6433 231.38 81.4269 231.38 82.2433C231.38 83.0596 231.701 83.8432 232.274 84.4251C232.847 85.0071 233.625 85.3407 234.442 85.3541H318.506C318.915 85.3612 319.321 85.2876 319.702 85.1376C320.082 84.9876 320.43 84.7642 320.724 84.48C321.018 84.1958 321.253 83.8566 321.416 83.4815C321.579 83.1065 321.666 82.7031 321.672 82.2944C321.679 81.8856 321.605 81.4796 321.455 81.0994C321.304 80.7193 321.081 80.3724 320.796 80.0788C320.511 79.7851 320.172 79.5504 319.796 79.388C319.421 79.2256 319.017 79.1387 318.608 79.1324C318.574 79.1317 318.54 79.1317 318.506 79.1324H234.442Z" fill="white"/>
</svg>
