<svg width="3078" height="1048" viewBox="0 0 3078 1048" fill="none" xmlns="http://www.w3.org/2000/svg">
<rect width="3077.11" height="1048" rx="115" fill="#01AFEE"/>
<path d="M1297.52 463.937H1354.99C1354.16 413.386 1312.62 378.486 1249.46 378.486C1187.28 378.486 1141.71 412.832 1141.99 464.352C1141.85 506.178 1171.35 530.137 1219.27 541.632L1250.15 549.388C1281.04 556.866 1298.21 565.73 1298.35 584.842C1298.21 605.616 1278.55 619.743 1248.08 619.743C1216.92 619.743 1194.48 605.339 1192.54 576.948H1134.51C1136.03 638.301 1179.94 670.016 1248.77 670.016C1318.02 670.016 1358.73 636.916 1358.87 584.981C1358.73 537.754 1323.14 512.687 1273.84 501.607L1248.35 495.513C1223.7 489.835 1203.07 480.695 1203.48 460.336C1203.48 442.055 1219.69 428.621 1249.05 428.621C1277.71 428.621 1295.3 441.639 1297.52 463.937ZM1441.62 666L1462.67 601.323H1565.02L1586.07 666H1650.33L1552.56 382.364H1475.28L1377.36 666H1441.62ZM1477.91 554.512L1512.81 447.179H1515.02L1549.93 554.512H1477.91ZM1638.63 431.806H1725.47V666H1784.74V431.806H1871.58V382.364H1638.63V431.806ZM2147.63 481.664C2139.74 416.156 2090.16 378.486 2024.51 378.486C1949.59 378.486 1892.39 431.391 1892.39 524.182C1892.39 616.696 1948.62 669.878 2024.51 669.878C2097.22 669.878 2141.12 621.543 2147.63 569.331L2086.97 569.054C2081.29 599.384 2057.47 616.835 2025.48 616.835C1982.41 616.835 1953.19 584.842 1953.19 524.182C1953.19 465.183 1981.99 431.529 2025.9 431.529C2058.72 431.529 2082.4 450.503 2086.97 481.664H2147.63ZM2190.63 666H2250.6V548.834H2372.34V666H2432.17V382.364H2372.34V499.391H2250.6V382.364H2190.63V666ZM2481.61 666H2673.29V616.558H2541.58V548.834H2662.9V499.391H2541.58V431.806H2672.73V382.364H2481.61V666ZM2720.41 666H2901.98V616.558H2780.38V382.364H2720.41V666Z" fill="white"/>
<path d="M984.357 870H261.782C252.827 869.986 244.242 866.422 237.91 860.09C231.578 853.758 228.014 845.173 228 836.218V350.306C228.022 336.534 233.502 323.332 243.241 313.594C252.979 303.855 266.181 298.375 279.953 298.353H966.185C979.96 298.367 993.166 303.846 1002.91 313.586C1012.65 323.326 1018.12 336.532 1018.14 350.306V836.218C1018.13 845.176 1014.57 853.764 1008.24 860.098C1001.9 866.431 993.314 869.993 984.357 870V870ZM284.966 813.061H961.2V355.373H284.966V813.061Z" fill="white"/>
<path d="M538.765 309.741H481.826V219.075C481.841 208.451 486.067 198.266 493.58 190.754C501.092 183.241 511.277 179.014 521.901 179H724.237C746.713 179 764.312 196.027 764.312 217.794V300.859H707.374V235.939H538.765V309.741Z" fill="white"/>
<path d="M795.915 649.057C796.067 659.409 794.483 669.713 791.229 679.542C788.357 688.082 784.175 696.124 778.833 703.38C773.818 710.187 767.726 716.132 760.798 720.979C754.115 725.708 746.935 729.691 739.385 732.857C725.434 738.692 710.481 741.755 695.359 741.875H454.011V684.664H695.359C707.383 684.664 716.718 681.44 723.366 674.992C726.748 671.599 729.384 667.537 731.106 663.066C732.828 658.596 733.597 653.815 733.364 649.029C733.4 644.068 732.475 639.146 730.64 634.536C728.939 630.236 726.359 626.339 723.066 623.094C719.629 619.77 715.525 617.216 711.024 615.602C705.979 613.767 700.647 612.844 695.278 612.877H551.46C540.389 612.735 529.389 611.076 518.768 607.946C506.994 604.648 495.917 599.239 486.076 591.982C475.747 584.306 467.205 574.481 461.039 563.186C454.392 551.307 451.068 536.778 451.068 519.596C451.068 502.415 454.392 487.939 461.039 476.17C467.249 464.898 475.783 455.073 486.076 447.347C495.907 440.054 506.985 434.616 518.768 431.301C529.388 428.163 540.387 426.494 551.46 426.342H764.394V483.553H551.46C539.582 483.553 530.319 486.859 523.672 493.47C520.301 496.91 517.674 501.008 515.953 505.507C514.233 510.006 513.457 514.811 513.674 519.623C513.674 530.63 517.007 539.32 523.672 545.695C530.338 552.07 539.6 555.258 551.46 555.258H695.85C703.048 555.473 710.214 556.321 717.263 557.791C724.988 559.398 732.528 561.789 739.766 564.929C747.298 568.206 754.443 572.308 761.07 577.161C767.874 582.152 773.913 588.108 778.996 594.842C784.366 602.051 788.551 610.071 791.392 618.599C794.553 628.436 796.081 638.725 795.915 649.057V649.057Z" fill="white"/>
<path d="M707.238 445.494H764.449V319.903H707.238V445.494Z" fill="white"/>
<path d="M453.983 843.792H511.194V718.2H453.983V843.792Z" fill="white"/>
</svg>
