<svg width="70" height="68" viewBox="0 0 70 68" fill="none" xmlns="http://www.w3.org/2000/svg">
<g filter="url(#filter0_d_97_2358)">
<rect x="4.9375" width="60.9378" height="59.8298" rx="15" fill="#01AFEE"/>
<path d="M58.0364 16.2929C56.3863 17.0242 54.6136 17.5182 52.75 17.7415C54.6729 16.5909 56.1115 14.7801 56.7973 12.6468C54.9908 13.7199 53.0135 14.4752 50.9516 14.8799C49.5651 13.3995 47.7285 12.4182 45.7271 12.0885C43.7257 11.7587 41.6714 12.099 39.8832 13.0564C38.095 14.0138 36.6729 15.5348 35.8377 17.3832C35.0025 19.2317 34.8009 21.3042 35.2643 23.2789C31.6037 23.0951 28.0226 22.1437 24.7535 20.4863C21.4844 18.829 18.6004 16.5027 16.2885 13.6586C15.498 15.0222 15.0435 16.6032 15.0435 18.287C15.0426 19.8027 15.4158 21.2953 16.1302 22.6322C16.8445 23.9691 17.8777 25.109 19.1382 25.9508C17.6764 25.9043 16.2467 25.5093 14.9684 24.7987V24.9172C14.9682 27.0431 15.7036 29.1036 17.0497 30.7491C18.3958 32.3945 20.2698 33.5236 22.3536 33.9447C20.9974 34.3117 19.5756 34.3657 18.1956 34.1028C18.7835 35.932 19.9287 37.5316 21.4709 38.6776C23.0131 39.8236 24.8751 40.4587 26.7961 40.4939C23.535 43.0539 19.5076 44.4426 15.3616 44.4365C14.6272 44.4367 13.8934 44.3938 13.1641 44.308C17.3724 47.0139 22.2712 48.4499 27.2744 48.4443C44.2107 48.4443 53.4694 34.417 53.4694 22.2513C53.4694 21.856 53.4595 21.4568 53.4417 21.0616C55.2426 19.7592 56.7972 18.1464 58.0325 16.2989L58.0364 16.2929Z" fill="white"/>
</g>
<defs>
<filter id="filter0_d_97_2358" x="0.9375" y="0" width="68.9375" height="67.8298" filterUnits="userSpaceOnUse" color-interpolation-filters="sRGB">
<feFlood flood-opacity="0" result="BackgroundImageFix"/>
<feColorMatrix in="SourceAlpha" type="matrix" values="0 0 0 0 0 0 0 0 0 0 0 0 0 0 0 0 0 0 127 0" result="hardAlpha"/>
<feOffset dy="4"/>
<feGaussianBlur stdDeviation="2"/>
<feComposite in2="hardAlpha" operator="out"/>
<feColorMatrix type="matrix" values="0 0 0 0 0 0 0 0 0 0 0 0 0 0 0 0 0 0 0.25 0"/>
<feBlend mode="normal" in2="BackgroundImageFix" result="effect1_dropShadow_97_2358"/>
<feBlend mode="normal" in="SourceGraphic" in2="effect1_dropShadow_97_2358" result="shape"/>
</filter>
</defs>
</svg>
